<?xml version="1.0" standalone="no"?>
<!DOCTYPE svg PUBLIC "-//W3C//DTD SVG 20010904//EN"
 "http://www.w3.org/TR/2001/REC-SVG-20010904/DTD/svg10.dtd">
<svg version="1.0" xmlns="http://www.w3.org/2000/svg"
 width="1280.000000pt" height="1049.000000pt" viewBox="0 0 1280.000000 1049.000000"
 preserveAspectRatio="xMidYMid meet">
<metadata>
Created by potrace 1.15, written by Peter Selinger 2001-2017
</metadata>
<g transform="translate(0.000000,1049.000000) scale(0.100000,-0.100000)"
fill="#000000" stroke="none">
<path d="M5575 9091 c-243 -140 -982 -989 -1764 -2029 l-92 -123 36 -44 36
-45 -73 39 c-105 57 -182 74 -298 68 -163 -8 -306 -68 -422 -175 -107 -100
-195 -256 -240 -426 l-23 -89 -270 -93 c-149 -51 -679 -232 -1180 -403 -501
-171 -930 -321 -954 -333 -58 -30 -69 -48 -54 -88 11 -28 10 -30 -8 -25 -13 4
-17 2 -14 -7 2 -7 36 -166 75 -353 95 -455 82 -413 133 -422 37 -6 39 -8 17
-13 -24 -6 -24 -7 7 -14 18 -4 35 -11 37 -14 6 -10 156 -666 601 -2626 46
-203 88 -372 92 -376 8 -8 60 -21 348 -90 94 -23 235 -57 315 -76 80 -19 208
-50 285 -69 77 -19 217 -52 310 -75 245 -59 510 -123 830 -200 154 -37 366
-88 470 -113 105 -26 276 -67 380 -92 105 -25 237 -57 295 -71 58 -14 195 -47
305 -74 110 -27 261 -62 335 -80 74 -17 182 -42 238 -56 142 -34 196 -33 307
7 50 18 95 38 100 45 6 6 237 131 515 277 278 145 996 522 1595 837 600 315
1227 644 1395 732 290 153 521 276 528 283 2 2 19 167 38 367 18 200 43 460
54 578 11 118 56 600 100 1070 81 874 107 1130 112 1135 2 1 40 21 84 43 l82
41 11 83 c7 46 25 160 41 255 32 181 36 223 21 223 -5 0 -12 11 -15 24 -11 44
-91 73 -276 100 -376 57 -702 108 -771 122 -25 5 -15 21 255 382 321 429 671
901 705 950 l23 32 -34 147 c-31 136 -35 147 -63 165 -145 90 -1250 322 -2325
488 -777 120 -1317 184 -1805 215 -340 22 -370 21 -430 -14z m360 -261 c129
-16 342 -44 473 -60 2087 -266 3389 -485 3471 -584 34 -41 -221 -419 -805
-1194 -131 -174 -163 -211 -184 -211 -14 -1 -277 37 -585 84 -308 47 -825 126
-1150 176 -1669 254 -1661 253 -1780 229 -33 -6 -364 -132 -735 -280 -371
-148 -688 -272 -705 -276 -29 -7 -29 -6 -14 12 36 42 1475 1772 1619 1946 85
104 156 188 158 188 1 0 108 -13 237 -30z m-422 -1751 c34 -2 30 -3 -23 -10
-36 -4 -75 -10 -87 -14 -13 -4 -23 -3 -23 2 0 12 60 32 78 27 8 -2 32 -5 55
-5z m95 -16 c-10 -2 -26 -2 -35 0 -10 3 -2 5 17 5 19 0 27 -2 18 -5z m80 -10
c-10 -2 -26 -2 -35 0 -10 3 -2 5 17 5 19 0 27 -2 18 -5z m338 -38 c316 -42
780 -108 1194 -171 750 -113 1517 -236 1535 -244 17 -8 17 -9 -5 -5 -37 7
-937 147 -1380 215 -470 72 -994 147 -1355 195 -282 37 -314 42 -279 44 12 0
143 -15 290 -34z m3091 -471 c-3 -3 -12 -4 -19 -1 -8 3 -5 6 6 6 11 1 17 -2
13 -5z m66 -11 c-7 -2 -19 -2 -25 0 -7 3 -2 5 12 5 14 0 19 -2 13 -5z m70 -10
c-7 -2 -21 -2 -30 0 -10 3 -4 5 12 5 17 0 24 -2 18 -5z m275 -38 c283 -43 295
-45 290 -51 -4 -4 -494 69 -538 80 -55 14 54 1 248 -29z m657 -114 c-13 -12
-257 -112 -262 -107 -4 3 245 113 262 115 6 1 6 -2 0 -8z m-2865 -126 c129
-14 316 -34 415 -45 99 -11 233 -25 298 -32 64 -6 117 -14 117 -17 0 -3 -9
-19 -19 -35 -15 -22 -40 -37 -98 -58 -131 -49 -145 -50 -358 -45 -216 6 -343
21 -522 62 -28 7 -78 79 -69 100 3 9 2 13 -4 10 -7 -5 -30 52 -30 78 0 10 11
10 270 -18z m-2815 -361 c4 -113 4 -415 0 -670 -7 -420 -9 -464 -24 -460 -9 3
-47 10 -86 16 -38 6 -121 20 -182 32 l-113 20 0 382 c0 416 9 726 21 726 4 0
5 -10 1 -22 -5 -21 -5 -21 15 -1 10 10 57 34 104 53 46 18 89 37 94 42 10 10
-65 -18 -144 -53 -24 -11 -46 -18 -48 -15 -3 3 332 153 348 155 4 1 10 -92 14
-205z m-662 -1013 c-1 -2 -88 11 -192 29 l-191 33 1 346 c0 190 3 341 5 335 3
-7 38 5 92 31 49 24 127 58 175 76 58 23 89 41 94 54 5 11 10 -187 13 -440 3
-253 4 -462 3 -464z m-672 336 c4 -212 4 -217 -16 -217 -23 0 -346 57 -349 62
-1 2 1 62 4 133 4 72 7 121 8 110 2 -12 5 -16 10 -9 9 15 66 43 177 88 142 59
145 60 146 76 0 10 3 8 8 -5 5 -11 10 -118 12 -238z m-651 -75 c0 -27 -2 -28
-32 -23 -32 5 -32 6 -5 9 19 2 27 9 27 23 0 10 2 19 5 19 3 0 5 -13 5 -28z
m-287 -1027 c27 -3 59 -9 70 -11 12 -3 56 -11 97 -20 41 -8 87 -18 102 -23 19
-7 28 -6 31 2 3 7 6 -36 8 -96 3 -92 2 -107 -12 -107 -17 0 -215 34 -294 51
-27 5 -60 12 -72 15 -22 4 -23 8 -23 114 l0 110 23 -14 c12 -7 44 -17 70 -21z
m592 -122 c41 -6 83 -13 100 -17 11 -2 56 -12 100 -21 44 -9 94 -19 110 -22
17 -3 32 -9 34 -15 2 -6 6 -6 11 1 4 7 10 -27 14 -75 3 -48 4 -89 1 -92 -5 -5
-162 18 -347 50 l-58 10 0 83 c0 83 7 124 19 108 3 -4 11 -9 16 -10z"/>
<path d="M7068 6238 c5 -18 7 -19 10 -6 2 9 11 19 20 21 10 3 6 5 -10 6 -22 1
-25 -2 -20 -21z"/>
<path d="M7138 6243 c12 -2 30 -2 40 0 9 3 -1 5 -23 4 -22 0 -30 -2 -17 -4z"/>
<path d="M7223 6233 c15 -2 39 -2 55 0 15 2 2 4 -28 4 -30 0 -43 -2 -27 -4z"/>
<path d="M7328 6223 c12 -2 30 -2 40 0 9 3 -1 5 -23 4 -22 0 -30 -2 -17 -4z"/>
<path d="M7413 6213 c15 -2 39 -2 55 0 15 2 2 4 -28 4 -30 0 -43 -2 -27 -4z"/>
<path d="M7540 6200 c45 -9 147 -13 139 -6 -2 2 -44 6 -94 9 -63 4 -77 3 -45
-3z"/>
<path d="M7708 6183 c12 -2 30 -2 40 0 9 3 -1 5 -23 4 -22 0 -30 -2 -17 -4z"/>
<path d="M7793 6173 c15 -2 37 -2 50 0 12 2 0 4 -28 4 -27 0 -38 -2 -22 -4z"/>
<path d="M7910 6160 c46 -9 127 -13 119 -6 -2 2 -40 6 -84 9 -60 4 -69 3 -35
-3z"/>
<path d="M8063 6143 c9 -2 25 -2 35 0 9 3 1 5 -18 5 -19 0 -27 -2 -17 -5z"/>
<path d="M4415 6045 c-83 -40 -82 -44 3 -11 l61 24 4 -36 c3 -33 4 -32 5 11 1
26 1 47 0 46 -2 0 -34 -16 -73 -34z"/>
<path d="M1395 1430 c11 -5 29 -8 40 -8 16 0 15 2 -5 8 -34 11 -60 11 -35 0z"/>
<path d="M1475 1410 c11 -5 29 -8 40 -8 16 0 15 2 -5 8 -34 11 -60 11 -35 0z"/>
<path d="M1560 1390 c34 -11 60 -11 35 0 -11 5 -29 8 -40 8 -16 0 -15 -2 5 -8z"/>
<path d="M1645 1370 c11 -5 27 -9 35 -9 9 0 8 4 -5 9 -11 5 -27 9 -35 9 -9 0
-8 -4 5 -9z"/>
<path d="M1718 1353 c7 -3 16 -2 19 1 4 3 -2 6 -13 5 -11 0 -14 -3 -6 -6z"/>
<path d="M1758 1343 c7 -3 16 -2 19 1 4 3 -2 6 -13 5 -11 0 -14 -3 -6 -6z"/>
<path d="M1798 1333 c7 -3 16 -2 19 1 4 3 -2 6 -13 5 -11 0 -14 -3 -6 -6z"/>
<path d="M1838 1323 c7 -3 16 -2 19 1 4 3 -2 6 -13 5 -11 0 -14 -3 -6 -6z"/>
<path d="M1890 1310 c34 -11 60 -11 35 0 -11 5 -29 8 -40 8 -16 0 -15 -2 5 -8z"/>
<path d="M1975 1290 c11 -5 29 -8 40 -8 16 0 15 2 -5 8 -34 11 -60 11 -35 0z"/>
<path d="M2055 1270 c11 -5 29 -8 40 -8 16 0 15 2 -5 8 -34 11 -60 11 -35 0z"/>
<path d="M2140 1250 c34 -11 60 -11 35 0 -11 5 -29 8 -40 8 -16 0 -15 -2 5 -8z"/>
<path d="M2225 1230 c11 -5 27 -9 35 -9 9 0 8 4 -5 9 -11 5 -27 9 -35 9 -9 0
-8 -4 5 -9z"/>
<path d="M2298 1213 c7 -3 16 -2 19 1 4 3 -2 6 -13 5 -11 0 -14 -3 -6 -6z"/>
<path d="M2338 1203 c7 -3 16 -2 19 1 4 3 -2 6 -13 5 -11 0 -14 -3 -6 -6z"/>
<path d="M2378 1193 c7 -3 16 -2 19 1 4 3 -2 6 -13 5 -11 0 -14 -3 -6 -6z"/>
<path d="M2418 1183 c7 -3 16 -2 19 1 4 3 -2 6 -13 5 -11 0 -14 -3 -6 -6z"/>
<path d="M2470 1170 c34 -11 60 -11 35 0 -11 5 -29 8 -40 8 -16 0 -15 -2 5 -8z"/>
<path d="M2555 1150 c11 -5 29 -8 40 -8 16 0 15 2 -5 8 -34 11 -60 11 -35 0z"/>
<path d="M2635 1130 c11 -5 29 -8 40 -8 16 0 15 2 -5 8 -34 11 -60 11 -35 0z"/>
<path d="M2725 1110 c11 -5 27 -9 35 -9 9 0 8 4 -5 9 -11 5 -27 9 -35 9 -9 0
-8 -4 5 -9z"/>
<path d="M2805 1090 c11 -5 27 -9 35 -9 9 0 8 4 -5 9 -11 5 -27 9 -35 9 -9 0
-8 -4 5 -9z"/>
<path d="M2878 1073 c7 -3 16 -2 19 1 4 3 -2 6 -13 5 -11 0 -14 -3 -6 -6z"/>
<path d="M2918 1063 c7 -3 16 -2 19 1 4 3 -2 6 -13 5 -11 0 -14 -3 -6 -6z"/>
<path d="M2958 1053 c7 -3 16 -2 19 1 4 3 -2 6 -13 5 -11 0 -14 -3 -6 -6z"/>
<path d="M2998 1043 c7 -3 16 -2 19 1 4 3 -2 6 -13 5 -11 0 -14 -3 -6 -6z"/>
<path d="M3050 1030 c34 -11 60 -11 35 0 -11 5 -29 8 -40 8 -16 0 -15 -2 5 -8z"/>
<path d="M3135 1010 c11 -5 29 -8 40 -8 16 0 15 2 -5 8 -34 11 -60 11 -35 0z"/>
<path d="M3215 990 c11 -5 29 -8 40 -8 16 0 15 2 -5 8 -34 11 -60 11 -35 0z"/>
<path d="M3305 970 c11 -5 27 -9 35 -9 9 0 8 4 -5 9 -11 5 -27 9 -35 9 -9 0
-8 -4 5 -9z"/>
<path d="M3385 950 c11 -5 27 -9 35 -9 9 0 8 4 -5 9 -11 5 -27 9 -35 9 -9 0
-8 -4 5 -9z"/>
<path d="M3458 933 c7 -3 16 -2 19 1 4 3 -2 6 -13 5 -11 0 -14 -3 -6 -6z"/>
<path d="M3498 923 c7 -3 16 -2 19 1 4 3 -2 6 -13 5 -11 0 -14 -3 -6 -6z"/>
<path d="M3538 913 c7 -3 16 -2 19 1 4 3 -2 6 -13 5 -11 0 -14 -3 -6 -6z"/>
<path d="M3578 903 c7 -3 16 -2 19 1 4 3 -2 6 -13 5 -11 0 -14 -3 -6 -6z"/>
<path d="M3630 890 c34 -11 60 -11 35 0 -11 5 -29 8 -40 8 -16 0 -15 -2 5 -8z"/>
<path d="M3715 870 c11 -5 29 -8 40 -8 16 0 15 2 -5 8 -34 11 -60 11 -35 0z"/>
<path d="M3795 850 c11 -5 29 -8 40 -8 16 0 15 2 -5 8 -34 11 -60 11 -35 0z"/>
<path d="M3885 830 c11 -5 27 -9 35 -9 9 0 8 4 -5 9 -11 5 -27 9 -35 9 -9 0
-8 -4 5 -9z"/>
<path d="M3965 810 c11 -5 27 -9 35 -9 9 0 8 4 -5 9 -11 5 -27 9 -35 9 -9 0
-8 -4 5 -9z"/>
<path d="M4038 793 c7 -3 16 -2 19 1 4 3 -2 6 -13 5 -11 0 -14 -3 -6 -6z"/>
<path d="M4078 783 c7 -3 16 -2 19 1 4 3 -2 6 -13 5 -11 0 -14 -3 -6 -6z"/>
<path d="M4118 773 c7 -3 16 -2 19 1 4 3 -2 6 -13 5 -11 0 -14 -3 -6 -6z"/>
<path d="M4158 763 c7 -3 16 -2 19 1 4 3 -2 6 -13 5 -11 0 -14 -3 -6 -6z"/>
<path d="M4210 750 c34 -11 60 -11 35 0 -11 5 -29 8 -40 8 -16 0 -15 -2 5 -8z"/>
<path d="M4295 730 c11 -5 29 -8 40 -8 16 0 15 2 -5 8 -34 11 -60 11 -35 0z"/>
<path d="M4375 710 c11 -5 29 -8 40 -8 16 0 15 2 -5 8 -34 11 -60 11 -35 0z"/>
<path d="M4465 690 c11 -5 27 -9 35 -9 9 0 8 4 -5 9 -11 5 -27 9 -35 9 -9 0
-8 -4 5 -9z"/>
<path d="M4545 670 c11 -5 27 -9 35 -9 9 0 8 4 -5 9 -11 5 -27 9 -35 9 -9 0
-8 -4 5 -9z"/>
<path d="M4618 653 c7 -3 16 -2 19 1 4 3 -2 6 -13 5 -11 0 -14 -3 -6 -6z"/>
<path d="M4658 643 c7 -3 16 -2 19 1 4 3 -2 6 -13 5 -11 0 -14 -3 -6 -6z"/>
<path d="M4710 630 c34 -11 60 -11 35 0 -11 5 -29 8 -40 8 -16 0 -15 -2 5 -8z"/>
<path d="M4795 610 c11 -5 27 -9 35 -9 9 0 8 4 -5 9 -11 5 -27 9 -35 9 -9 0
-8 -4 5 -9z"/>
<path d="M4875 590 c11 -5 29 -8 40 -8 16 0 15 2 -5 8 -34 11 -60 11 -35 0z"/>
<path d="M4948 573 c7 -3 16 -2 19 1 4 3 -2 6 -13 5 -11 0 -14 -3 -6 -6z"/>
<path d="M4988 563 c7 -3 16 -2 19 1 4 3 -2 6 -13 5 -11 0 -14 -3 -6 -6z"/>
<path d="M5045 550 c11 -5 27 -9 35 -9 9 0 8 4 -5 9 -11 5 -27 9 -35 9 -9 0
-8 -4 5 -9z"/>
<path d="M5125 530 c11 -5 27 -9 35 -9 9 0 8 4 -5 9 -11 5 -27 9 -35 9 -9 0
-8 -4 5 -9z"/>
<path d="M5198 513 c7 -3 16 -2 19 1 4 3 -2 6 -13 5 -11 0 -14 -3 -6 -6z"/>
<path d="M5236 512 c-3 -4 4 -9 15 -9 23 -2 25 3 4 10 -8 4 -16 3 -19 -1z"/>
<path d="M5305 490 c11 -5 27 -9 35 -9 9 0 8 4 -5 9 -11 5 -27 9 -35 9 -9 0
-8 -4 5 -9z"/>
<path d="M5385 470 c11 -5 29 -8 40 -8 16 0 15 2 -5 8 -34 11 -60 11 -35 0z"/>
<path d="M5550 470 c-21 -7 -21 -8 -5 -9 11 0 27 4 35 9 18 11 5 11 -30 0z"/>
</g>
</svg>
